<?xml version="1.0" encoding="UTF-8" ?>
<!DOCTYPE svg PUBLIC "-//W3C//DTD SVG 1.1//EN" "http://www.w3.org/Graphics/SVG/1.1/DTD/svg11.dtd">
<svg width="430pt" height="366pt" viewBox="0 0 430 366" version="1.1" xmlns="http://www.w3.org/2000/svg">
<g id="#020202ff">
<path fill="#020202" opacity="1.00" d=" M 191.43 38.94 C 195.35 36.96 198.64 33.33 203.24 33.03 C 202.21 54.57 203.23 76.22 202.38 97.75 C 184.35 108.83 165.80 119.08 147.35 129.44 C 146.13 130.16 145.04 131.08 143.96 132.00 C 139.18 131.22 135.58 127.64 131.39 125.50 C 122.36 120.67 113.70 115.19 104.76 110.21 C 98.82 106.39 92.12 103.71 86.84 98.92 C 100.74 90.27 115.09 82.31 129.44 74.40 C 150.18 62.70 170.44 50.18 191.43 38.94 Z" />
<path fill="#020202" opacity="1.00" d=" M 211.61 32.26 C 221.78 37.76 231.52 44.00 241.79 49.32 C 254.10 56.26 266.43 63.16 278.55 70.41 C 290.06 76.44 301.21 83.08 312.39 89.67 C 315.56 92.18 319.65 92.92 322.93 95.22 C 320.36 96.07 317.65 96.28 314.96 96.24 C 280.43 96.51 245.89 96.37 211.36 96.40 C 211.42 75.02 211.32 53.62 211.61 32.26 Z" />
<path fill="#020202" opacity="1.00" d=" M 198.55 109.82 C 202.73 107.50 206.90 104.29 211.94 104.58 C 241.94 104.66 271.95 104.43 301.96 104.47 C 308.06 104.60 314.17 104.10 320.27 104.65 C 314.09 107.28 308.61 111.18 302.86 114.58 C 289.90 122.53 276.09 128.96 263.24 137.10 C 248.40 145.53 233.71 154.22 218.85 162.61 C 214.56 164.81 210.61 169.53 205.41 168.50 C 192.93 160.91 180.06 153.96 167.48 146.54 C 162.14 143.01 156.43 140.12 150.80 137.11 C 166.67 127.93 182.63 118.91 198.55 109.82 Z" />
<path fill="#020202" opacity="1.00" d=" M 298.60 126.72 C 310.12 120.52 321.29 113.69 332.55 107.04 C 332.50 152.34 332.69 197.64 332.56 242.94 C 319.62 236.16 307.25 228.37 294.45 221.33 C 288.27 217.39 281.41 214.59 275.47 210.28 C 275.10 188.86 275.73 167.44 275.36 146.01 C 275.60 144.02 274.66 141.10 276.93 140.02 C 284.12 135.54 291.52 131.39 298.60 126.72 Z" />
<path fill="#020202" opacity="1.00" d=" M 81.72 111.82 C 89.03 124.44 95.94 137.28 102.93 150.08 C 111.17 163.89 119.56 177.62 127.30 191.72 C 129.92 196.68 132.32 201.76 135.32 206.51 C 136.34 207.97 136.71 209.70 136.86 211.44 C 118.10 221.31 100.43 233.04 81.68 242.89 C 81.36 204.26 81.49 165.63 81.45 127.01 C 81.50 121.94 81.16 116.87 81.72 111.82 Z" />
<path fill="#020202" opacity="1.00" d=" M 90.61 112.10 C 99.00 117.27 107.76 121.79 116.21 126.85 C 131.65 136.64 147.94 144.99 163.65 154.33 C 176.56 161.97 189.67 169.38 202.31 177.41 C 202.41 198.61 202.46 219.82 202.51 241.02 C 184.36 231.15 166.60 220.56 148.73 210.18 C 145.26 208.62 143.90 205.03 142.38 201.84 C 125.51 171.70 108.20 141.81 90.61 112.10 Z" />
<path fill="#020202" opacity="1.00" d=" M 238.82 161.04 C 248.09 155.95 257.24 150.63 266.70 145.88 C 266.13 167.26 266.37 188.65 266.26 210.03 C 265.31 214.80 261.65 218.50 259.61 222.86 C 256.87 228.58 253.36 233.87 250.06 239.27 C 240.35 256.78 230.03 273.94 220.58 291.59 C 217.75 297.26 214.32 302.59 211.36 308.18 C 211.31 264.32 211.19 220.46 211.50 176.60 C 220.83 171.82 230.03 166.75 238.82 161.04 Z" />
<path fill="#020202" opacity="1.00" d=" M 123.17 229.13 C 130.17 225.34 136.64 220.56 143.96 217.38 C 148.63 219.94 153.41 222.33 157.92 225.17 C 172.48 234.56 188.42 241.74 202.53 251.82 C 202.24 273.56 202.67 295.31 202.33 317.06 C 197.40 315.83 193.64 312.12 189.12 309.98 C 177.62 302.93 165.60 296.79 154.03 289.86 C 131.90 276.43 108.47 265.24 86.95 250.83 C 90.27 247.28 94.99 245.69 99.05 243.21 C 106.88 238.17 115.09 233.76 123.17 229.13 Z" />
<path fill="#020202" opacity="1.00" d=" M 271.55 219.10 C 275.50 219.54 278.74 222.03 282.10 223.93 C 296.55 232.72 311.38 240.86 326.21 248.99 C 327.03 249.78 326.61 251.12 326.85 252.16 C 312.92 259.59 299.71 268.33 285.81 275.83 C 279.07 279.32 272.75 283.55 265.95 286.94 C 252.69 295.56 238.35 302.40 225.09 311.03 C 222.55 312.77 219.88 314.32 217.13 315.71 C 218.05 313.25 219.15 310.87 220.55 308.64 C 226.56 299.04 231.25 288.70 237.24 279.09 C 243.40 267.15 250.66 255.83 257.39 244.20 C 261.82 235.67 267.59 227.89 271.55 219.10 Z" />
</g>
</svg>
